<svg id="Layer_1" data-name="Layer 1" xmlns="http://www.w3.org/2000/svg" xmlns:xlink="http://www.w3.org/1999/xlink" viewBox="0 0 241.9971 215.6517">

<defs>
    <style>.cls-1{fill:none;}
            .cls-2{fill:#fff;
            stroke:#231f20;
            stroke-miterlimit:10;}
            .cls-3{clip-path:url(#clip-path);}
    </style>

    <clipPath id="clip-path"><path class="cls-1" d="M156.4373,12.5751H85.56A33.8693,33.8693,0,0,0,56.2283,29.51L20.79,90.8913a33.8693,33.8693,0,0,0,0,33.8691l35.4387,61.3817A33.8692,33.8692,0,0,0,85.56,203.0767h70.8775a33.8689,33.8689,0,0,0,29.3315-16.9346L221.2076,124.76a33.8693,33.8693,0,0,0,0-33.8691L185.7688,29.51A33.869,33.869,0,0,0,156.4373,12.5751Z"/></clipPath>

    </defs><title>Hexa 03</title><path class="cls-2" d="M161.6349.5H80.3622A36.9416,36.9416,0,0,0,48.37,18.9708L7.7335,89.355a36.9417,36.9417,0,0,0,0,36.9417L48.37,196.6809a36.9416,36.9416,0,0,0,31.9924,18.4708h81.2727a36.9416,36.9416,0,0,0,31.9924-18.4708l40.6364-70.3842a36.9417,36.9417,0,0,0,0-36.9417L193.6273,18.9708A36.9416,36.9416,0,0,0,161.6349.5Z"/>

    <g class="cls-3">
        <image width="2159" height="1904" 
        transform="translate(12.2822) scale(0.119)" xlink:href="./Tree.gif"/>
    </g>

</svg>